<svg xmlns="http://www.w3.org/2000/svg" viewBox="0 0 182.9 154.9"><path fill="none" stroke="#ccc" stroke-linecap="round" stroke-width="7.1" d="M140.7 93.7a30 30 0 001-19c-1.2-4-3.3-7.6-6-10.8a27.2 27.2 0 00-18-9.2c-6-.8-10.1-.6-15.4 2.2-3.1 1.6-7.4 6-10.7 6-5 0-7.7-5.5-12.4-6.9-4.2-1.3-9-2.3-13.5-1.4-2.3.5-5 .8-7.5 1.9-3 1.4-6 3.1-8.5 5.4-2 1.8-3.7 3.7-5 6-2.3 4-3.5 8.4-4 12.9-1.3 12.2 9.2 25 17 28.4 7.8 3.3 6 .9 6 5s-.4 6.8-.1 10.2c.2 2.9.3 5.8 1.3 8.5 1.3 3.3 3 6.7 5.7 9a34.8 34.8 0 0021 8.4 31 31 0 0019.3-7.2 20 20 0 006.3-10.2c1-4 1.8-13.9 1.8-18.7 0-3.4 7.3-2.4 11-2.4 3.2 0 7.8.3 13.8-4.3 6.5-5 5.3-13 10.7-13h1c1.4 0 3.3.6 7-.1 8.3-1.7 16.3-7.6 16.3-16.9 0-10.5-3.7-15.5-10.9-18.8-5.5-2.2-10.5-1.1-16-.8-.7 0-1-.7-1.2-1.2l-3-6.2c-15.4-21.9-32.4-33.1-56.1-33.3-14.1-.1-28.9 5.5-38.7 13a59.5 59.5 0 00-20.3 26.7c-.3.7-.4.7-1.2 1-3.7.1-8-.9-11-.5-1.3.2-3 .3-4.6 1-3.8 1.4-7 4-9 7.4a21 21 0 00-1.4 17.4c.6 2 2.2 4.2 3.5 5.5 5.4 5.5 16 6.4 21.2 3.4m79.5-8.6c1.2-3.8 2.8-6 7.7-6 4.8 0 5.8 2.7 7 6m-62 0c1-3.8 2.7-6 7.6-6 4.8 0 5.8 2.7 7 6"/></svg>